# xmcd
#
# Track frame offsets:
#	150
#	13200
#	26250
#	49475
#	72700
#	87206
#	101712
#	121710
#	141708
#	155485
#	169262
#	190655
#	211963
#	236924
#	261885
#	282522
#	303144
#
# Disc length: 4102 seconds
#
# Revision: 0
# Processed by: cddbd v1.5.1PL2 Copyright (c) Steve Scherf et al.
# Submitted via: audiograbber 1.83.01
#
DISCID=fd100411
DTITLE=Guitar Play-Along - Volume 41 - Eric Clapton
DYEAR=2005
DGENRE=Instructional
TTITLE0=After Midnight - Demo
TTITLE1=After Midnight - Play Along
TTITLE2=Can't Find my Way Home - Demo
TTITLE3=Can't Find my Way Home - Play Along
TTITLE4=Forever Man - Demo
TTITLE5=Forever Man - Play Along
TTITLE6=I Shot the Sheriff - Demo
TTITLE7=I Shot the Sheriff - Play Along
TTITLE8=I'm Tore Down - Demo
TTITLE9=I'm Tore Down - Play Along
TTITLE10=Pretending - Demo
TTITLE11=Pretending - Play Along
TTITLE12=Running on Faith - Demo
TTITLE13=Running on Faith - Play Along
TTITLE14=Tears in Heaven - Demo
TTITLE15=Tears in Heaven - Play Along
TTITLE16=Tuning Notes
EXTD=
EXTT0=
EXTT1=
EXTT2=
EXTT3=
EXTT4=
EXTT5=
EXTT6=
EXTT7=
EXTT8=
EXTT9=
EXTT10=
EXTT11=
EXTT12=
EXTT13=
EXTT14=
EXTT15=
EXTT16=
PLAYORDER=
